<svg width="194" height="195" viewBox="0 0 194 195" fill="none" xmlns="http://www.w3.org/2000/svg">
<path d="M27.6641 121.691C53.5125 128.5 63.6327 136.582 63.8502 166.282C34.795 160.612 27.1191 150.636 27.6641 121.691Z" stroke="white" stroke-width="9"/>
<path d="M27.6204 64.2604C47.1133 84.8364 51.1958 97.4003 28.5981 121.678C8.30467 98.9784 8.56045 86.3991 27.6204 64.2604Z" stroke="white" stroke-width="9"/>
<path d="M164.894 69.8634C183.443 91.1125 186.665 103.74 165.872 127.281C145.858 104.621 146.032 92.0426 164.894 69.8634Z" stroke="white" stroke-width="9"/>
<path d="M64.0836 166.008C84.4614 148.926 97.0674 145.927 121.509 166.318C100.52 184.973 87.9423 184.725 64.0836 166.008Z" stroke="white" stroke-width="9"/>
<path d="M121.311 165.673C126.109 138.332 134.042 128.05 165.901 129.487C160.526 158.687 150.43 166.244 121.311 165.673Z" stroke="white" stroke-width="9"/>
<path d="M165.251 69.0646C137.149 67.0445 126.268 59.9221 126.184 26.9748C158.127 29.8746 166.844 39.0344 165.251 69.0646Z" stroke="white" stroke-width="9"/>
<path d="M127.573 27.8695C107.228 45.7611 94.6776 49.2285 70.1535 28.7286C91.5621 6.78904 104.075 6.43536 127.573 27.8695Z" stroke="white" stroke-width="9"/>
<path d="M72.7825 28.3832C68.5003 54.6501 60.4855 64.8026 28.1309 64.494C30.9164 32.5572 40.7013 24.674 72.7825 28.3832Z" stroke="white" stroke-width="9"/>
</svg>
